<?xml version="1.0" standalone="no"?>
<!DOCTYPE svg PUBLIC "-//W3C//DTD SVG 20010904//EN"
 "http://www.w3.org/TR/2001/REC-SVG-20010904/DTD/svg10.dtd">
<svg version="1.0" xmlns="http://www.w3.org/2000/svg"
 width="247.000000pt" height="247.000000pt" viewBox="0 0 247.000000 247.000000"
 preserveAspectRatio="xMidYMid meet">

<g transform="translate(0.000000,247.000000) scale(0.100000,-0.100000)"
fill="#000000" stroke="none">
<path d="M0 1235 l0 -1235 1235 0 1235 0 0 1235 0 1235 -1235 0 -1235 0 0
-1235z m1028 287 c15 -16 70 -94 122 -175 52 -81 97 -147 100 -147 3 0 17 14
32 32 l27 33 1 -56 c0 -46 -4 -61 -25 -83 -13 -14 -31 -26 -39 -26 -17 0 -60
51 -147 179 l-64 93 -3 -223 c-1 -148 -6 -227 -14 -236 -6 -8 -23 -13 -37 -11
l-26 3 -3 314 c-2 324 -2 330 36 331 8 0 26 -13 40 -28z"/>
</g>
</svg>
